External Loads File
version=1
nRows=86
nColumns=13
Range=5.000000e-03-10 seconds
endheader
time 	forceRightX 	forceRightY 	forceRightZ 	pointRightX 	pointRightY 	pointRightZ 	forceLeftX 	forceLeftY 	forceLeftZ 	pointLeftX 	pointLeftY 	pointLeftZ 		
0.005000 32.854287 194.885785 -0.000000 0.160328 0.174654 -0.164859 2.525713 126.687756 -0.000000 0.319056 0.471799 -0.415671
0.010000 33.132935 194.767493 -0.000000 0.160297 0.174664 -0.164869 4.657608 130.360777 -0.000000 0.319102 0.471785 -0.415676
0.015000 33.355765 194.600967 -0.000000 0.160251 0.174689 -0.164867 6.606440 133.707431 -0.000000 0.319138 0.471779 -0.415678
0.020000 33.501391 194.396758 -0.000000 0.160259 0.174716 -0.164739 8.222370 136.469746 -0.000000 0.319174 0.471675 -0.415675
0.025000 33.526468 194.188702 -0.000000 0.160256 0.174689 -0.164797 9.409289 138.546781 -0.000000 0.319177 0.471647 -0.415700
0.030000 33.534605 193.981988 -0.000000 0.160209 0.174688 -0.164802 10.251219 139.982207 -0.000000 0.319198 0.471654 -0.415699
0.035000 33.514872 193.783492 -0.000000 0.160199 0.174694 -0.164792 10.793539 140.908482 -0.000000 0.319221 0.471642 -0.415713
0.040000 33.518634 193.583813 -0.000000 0.160170 0.174700 -0.164797 11.112120 141.436939 -0.000000 0.319250 0.471615 -0.415708
0.045000 33.554297 193.389393 -0.000000 0.160128 0.174725 -0.164784 11.224910 141.630261 -0.000000 0.319271 0.471611 -0.415700
0.050000 33.621984 193.204644 -0.000000 0.160114 0.174730 -0.164798 11.139944 141.519209 -0.000000 0.319304 0.471609 -0.415696
0.055000 33.734452 193.005238 -0.000000 0.160094 0.174744 -0.164784 10.897262 141.134082 -0.000000 0.319328 0.471606 -0.415695
0.060000 33.869546 192.750888 -0.000000 0.160068 0.174743 -0.164791 10.549714 140.548101 -0.000000 0.319353 0.471593 -0.415698
0.065000 34.004263 192.416399 -0.000000 0.160061 0.174765 -0.164793 10.165657 139.861930 -0.000000 0.319386 0.471580 -0.415690
0.070000 34.116417 192.015308 -0.000000 0.160035 0.174784 -0.164785 9.797930 139.159405 -0.000000 0.319405 0.471581 -0.415680
0.075000 34.172092 191.592392 -0.000000 0.160021 0.174779 -0.164783 9.473862 138.503617 -0.000000 0.319428 0.471573 -0.415674
0.080000 34.163911 191.198381 -0.000000 0.159992 0.174799 -0.164787 9.218970 137.926935 -0.000000 0.319458 0.471557 -0.415674
0.085000 34.033015 190.888185 -0.000000 0.159976 0.174801 -0.164778 8.990850 137.434856 -0.000000 0.319483 0.471560 -0.415665
0.090000 33.820012 190.684893 -0.000000 0.159960 0.174798 -0.164786 8.806698 137.052186 -0.000000 0.319507 0.471549 -0.415666
0.095000 33.595770 190.590395 -0.000000 0.159933 0.174819 -0.164780 8.705899 136.835613 -0.000000 0.319536 0.471524 -0.415660
0.100000 33.372426 190.599045 -0.000000 0.159924 0.174818 -0.164789 8.677148 136.818792 -0.000000 0.319555 0.471520 -0.415659
0.105000 33.226136 190.689562 -0.000000 0.159901 0.174834 -0.164792 8.747976 136.985696 -0.000000 0.319578 0.471502 -0.415650
0.110000 33.148123 190.874330 -0.000000 0.159882 0.174834 -0.164783 8.881662 137.291962 -0.000000 0.319596 0.471497 -0.415661
0.115000 33.161922 191.163532 -0.000000 0.159872 0.174838 -0.164790 9.073530 137.683050 -0.000000 0.319622 0.471481 -0.415648
0.120000 33.247049 191.533074 -0.000000 0.159851 0.174846 -0.164773 9.322767 138.135821 -0.000000 0.319641 0.471479 -0.415650
0.125000 33.352453 191.919688 -0.000000 0.159836 0.174846 -0.164775 9.625141 138.643334 -0.000000 0.319648 0.471465 -0.415644
0.130000 33.447011 192.267031 -0.000000 0.159812 0.174857 -0.164769 9.959602 139.166576 -0.000000 0.319656 0.471483 -0.415654
0.135000 33.505519 192.563156 -0.000000 0.159824 0.174849 -0.164770 10.274816 139.651474 -0.000000 0.319670 0.471473 -0.415651
0.140000 33.550653 192.806951 -0.000000 0.159822 0.174865 -0.164767 10.551188 140.062011 -0.000000 0.319675 0.471473 -0.415666
0.145000 33.573380 192.990854 -0.000000 0.159813 0.174857 -0.164765 10.765864 140.395626 -0.000000 0.319682 0.471475 -0.415663
0.150000 33.560387 193.102361 -0.000000 0.159818 0.174818 -0.164759 10.924493 140.692339 -0.000000 0.319678 0.471470 -0.415663
0.155000 33.535578 193.135190 -0.000000 0.159835 0.174838 -0.164761 11.075205 141.005321 -0.000000 0.319675 0.471489 -0.415662
0.160000 33.494154 193.106190 -0.000000 0.159847 0.174812 -0.164764 11.229581 141.354623 -0.000000 0.319669 0.471489 -0.415655
0.165000 33.441408 193.036993 -0.000000 0.159875 0.174813 -0.164758 11.398036 141.733159 -0.000000 0.319654 0.471506 -0.415656
0.170000 33.390995 192.931727 -0.000000 0.159892 0.174809 -0.164760 11.604637 142.125023 -0.000000 0.319632 0.471519 -0.415641
0.175000 33.314411 192.777900 -0.000000 0.159930 0.174776 -0.164746 11.834830 142.493218 -0.000000 0.319610 0.471534 -0.415637
0.180000 33.218863 192.555007 -0.000000 0.159967 0.174771 -0.164755 12.087223 142.798146 -0.000000 0.319578 0.471557 -0.415637
0.185000 33.095055 192.269978 -0.000000 0.160013 0.174748 -0.164752 12.337913 143.026874 -0.000000 0.319552 0.471579 -0.415635
0.190000 32.955652 191.949440 -0.000000 0.160059 0.174725 -0.164756 12.560498 143.164706 -0.000000 0.319528 0.471605 -0.415619
0.195000 32.812722 191.622419 -0.000000 0.160121 0.174707 -0.164750 12.716229 143.181715 -0.000000 0.319509 0.471615 -0.415612
0.200000 32.683811 191.307327 -0.000000 0.160167 0.174696 -0.164751 12.765424 143.034102 -0.000000 0.319473 0.471632 -0.415618
0.205000 32.575965 191.017887 -0.000000 0.160234 0.174665 -0.164760 12.667877 142.681404 -0.000000 0.319440 0.471657 -0.415617
0.210000 32.536229 190.762168 -0.000000 0.160285 0.174642 -0.164758 12.461148 142.135117 -0.000000 0.319409 0.471668 -0.415606
0.215000 32.547186 190.560156 -0.000000 0.160341 0.174630 -0.164756 12.184637 141.470782 -0.000000 0.319381 0.471704 -0.415603
0.220000 32.606268 190.413260 -0.000000 0.160395 0.174609 -0.164756 11.892200 140.769253 -0.000000 0.319349 0.471718 -0.415596
0.225000 32.695727 190.296109 -0.000000 0.160447 0.174590 -0.164758 11.604255 140.086219 -0.000000 0.319322 0.471729 -0.415596
0.230000 32.762617 190.174408 -0.000000 0.160506 0.174552 -0.164763 11.291859 139.436306 -0.000000 0.319290 0.471772 -0.415598
0.235000 32.818382 190.012166 -0.000000 0.160549 0.174550 -0.164768 10.963263 138.795280 -0.000000 0.319257 0.471791 -0.415602
0.240000 32.818380 189.803834 -0.000000 0.160598 0.174519 -0.164767 10.593862 138.143353 -0.000000 0.319225 0.471785 -0.415604
0.245000 32.760788 189.558317 -0.000000 0.160642 0.174499 -0.164764 10.190525 137.460824 -0.000000 0.319194 0.471806 -0.415600
0.250000 32.668796 189.294919 -0.000000 0.160675 0.174496 -0.164755 9.770324 136.730772 -0.000000 0.319171 0.471840 -0.415620
0.255000 32.554999 189.041589 -0.000000 0.160707 0.174483 -0.164756 9.343625 135.965623 -0.000000 0.319139 0.471832 -0.415605
0.260000 32.427847 188.830752 -0.000000 0.160746 0.174461 -0.164756 8.914682 135.190181 -0.000000 0.319113 0.471853 -0.415609
0.265000 32.322338 188.681869 -0.000000 0.160774 0.174454 -0.164764 8.508261 134.428261 -0.000000 0.319088 0.471863 -0.415611
0.270000 32.221925 188.596445 -0.000000 0.160808 0.174431 -0.164769 8.134201 133.730718 -0.000000 0.319069 0.471874 -0.415607
0.275000 32.130461 188.546375 -0.000000 0.160818 0.174426 -0.164768 7.830921 133.157139 -0.000000 0.319038 0.471897 -0.415602
0.280000 32.036437 188.507382 -0.000000 0.160843 0.174417 -0.164771 7.617784 132.753159 -0.000000 0.319025 0.471906 -0.415604
0.285000 31.958932 188.477772 -0.000000 0.160848 0.174422 -0.164764 7.521305 132.553905 -0.000000 0.319010 0.471915 -0.415615
0.290000 31.907051 188.482983 -0.000000 0.160837 0.174413 -0.164771 7.542132 132.569018 -0.000000 0.318987 0.471919 -0.415605
0.295000 31.902038 188.554222 -0.000000 0.160843 0.174405 -0.164778 7.677775 132.779432 -0.000000 0.318977 0.471913 -0.415605
0.300000 31.959264 188.719456 -0.000000 0.160838 0.174426 -0.164775 7.928042 133.172929 -0.000000 0.318962 0.471919 -0.415615
0.305000 32.072728 188.998819 -0.000000 0.160826 0.174426 -0.164767 8.274915 133.734462 -0.000000 0.318960 0.471931 -0.415613
0.310000 32.233018 189.396251 -0.000000 0.160815 0.174415 -0.164775 8.678621 134.419384 -0.000000 0.318947 0.471925 -0.415621
0.315000 32.457331 189.884499 -0.000000 0.160803 0.174426 -0.164775 9.112041 135.172105 -0.000000 0.318953 0.471919 -0.415615
0.320000 32.707084 190.413145 -0.000000 0.160783 0.174417 -0.164781 9.521562 135.939927 -0.000000 0.318957 0.471926 -0.415606
0.325000 32.963929 190.913069 -0.000000 0.160758 0.174435 -0.164778 9.893990 136.672319 -0.000000 0.318953 0.471917 -0.415591
0.330000 33.168272 191.332697 -0.000000 0.160749 0.174437 -0.164778 10.216122 137.351696 -0.000000 0.318955 0.471921 -0.415589
0.335000 33.314428 191.630161 -0.000000 0.160733 0.174449 -0.164761 10.520533 137.988103 -0.000000 0.318958 0.471914 -0.415596
0.340000 33.372721 191.790866 -0.000000 0.160724 0.174448 -0.164759 10.806498 138.596801 -0.000000 0.318960 0.471906 -0.415597
0.345000 33.356478 191.824357 -0.000000 0.160713 0.174446 -0.164769 11.084162 139.180276 -0.000000 0.318974 0.471916 -0.415579
0.350000 33.284343 191.759880 -0.000000 0.160704 0.174455 -0.164768 11.347960 139.718682 -0.000000 0.318973 0.471898 -0.415593
0.355000 33.167023 191.624908 -0.000000 0.160697 0.174462 -0.164771 11.583339 140.192628 -0.000000 0.318984 0.471900 -0.415600
0.360000 33.022242 191.439376 -0.000000 0.160688 0.174462 -0.164767 11.802837 140.625742 -0.000000 0.318994 0.471901 -0.415595
0.365000 32.872581 191.222116 -0.000000 0.160690 0.174464 -0.164770 12.030962 141.052413 -0.000000 0.319001 0.471885 -0.415595
0.370000 32.742469 190.987814 -0.000000 0.160686 0.174467 -0.164762 12.271531 141.455419 -0.000000 0.319012 0.471879 -0.415595
0.375000 32.644071 190.752645 -0.000000 0.160687 0.174479 -0.164762 12.498596 141.782497 -0.000000 0.319015 0.471872 -0.415591
0.380000 32.604213 190.531018 -0.000000 0.160673 0.174488 -0.164760 12.694894 141.992654 -0.000000 0.319023 0.471865 -0.415592
0.385000 32.620974 190.328160 -0.000000 0.160659 0.174511 -0.164759 12.845697 142.095251 -0.000000 0.319032 0.471869 -0.415597
0.390000 32.671362 190.134056 -0.000000 0.160663 0.174517 -0.164757 12.962480 142.159193 -0.000000 0.319042 0.471858 -0.415588
0.395000 32.740592 189.935827 -0.000000 0.160657 0.174508 -0.164763 13.074470 142.246397 -0.000000 0.319058 0.471862 -0.415585
0.400000 32.821374 189.739610 -0.000000 0.160633 0.174509 -0.164755 13.187478 142.353438 -0.000000 0.319060 0.471847 -0.415586
0.405000 32.888177 189.574261 -0.000000 0.160636 0.174512 -0.164758 13.271515 142.441168 -0.000000 0.319073 0.471847 -0.415578
0.410000 32.956171 189.452397 -0.000000 0.160626 0.174511 -0.164757 13.328252 142.465467 -0.000000 0.319078 0.471826 -0.415590
0.415000 33.001950 189.368961 -0.000000 0.160602 0.174517 -0.164748 13.344983 142.404085 -0.000000 0.319091 0.471841 -0.415592
0.420000 32.985732 189.313775 -0.000000 0.160611 0.174530 -0.164755 13.317768 142.283684 -0.000000 0.319099 0.471824 -0.415587
0.425000 32.909760 189.275051 -0.000000 0.160583 0.174511 -0.164757 13.267540 142.141584 -0.000000 0.319112 0.471816 -0.415593
0.430000 32.760392 189.246891 -0.000000 0.160579 0.174522 -0.164755 13.164826 141.971419 -0.000000 0.319117 0.471835 -0.415589
